<?xml version="1.0" encoding="utf-8"?>
<!-- Generator: Adobe Illustrator 15.1.0, SVG Export Plug-In . SVG Version: 6.00 Build 0)  -->
<!DOCTYPE svg PUBLIC "-//W3C//DTD SVG 1.1//EN" "http://www.w3.org/Graphics/SVG/1.1/DTD/svg11.dtd">
<svg version="1.1" id="Layer_2" xmlns="http://www.w3.org/2000/svg" xmlns:xlink="http://www.w3.org/1999/xlink" x="0px" y="0px"
	 width="654.5px" height="164.605px" viewBox="0 0 654.5 164.605" enable-background="new 0 0 654.5 164.605" xml:space="preserve">
<g>
	<g>
		<path fill="#B3AA7E" d="M76.844,97.124H19.547c0.35,6.389,2.547,11.359,6.592,14.903c4.042,3.547,9.485,5.318,16.326,5.318
			c8.54,0,15.029-2.222,19.471-6.665l7.267,14.301c-6.592,5.345-16.428,8.017-29.51,8.017c-12.229,0-21.906-3.581-29.02-10.746
			C3.559,115.084,0,105.088,0,92.253c0-12.628,3.908-22.865,11.721-30.706c7.814-7.839,17.189-11.758,28.122-11.758
			c11.635,0,20.97,3.471,28.012,10.412c7.041,6.939,10.562,15.777,10.562,26.513C78.417,89.01,77.888,92.479,76.844,97.124z
			 M20.221,83.042h39.396c-1.299-11.73-7.79-17.599-19.474-17.599C29.458,65.443,22.817,71.311,20.221,83.042z"/>
		<path fill="#B3AA7E" d="M153.048,57.653l-8.014,14.006c-4.394-4.144-10.286-6.216-17.675-6.216
			c-7.089,0-12.695,2.359-16.814,7.078c-4.117,4.716-6.179,11.245-6.179,19.584c0,16.827,8.016,25.241,24.042,25.241
			c6.942,0,13.057-2.297,18.353-6.892l6.889,14.755c-5.443,3.396-10.199,5.541-14.268,6.441c-4.069,0.897-8.877,1.348-14.418,1.348
			c-12.386,0-22.157-3.607-29.323-10.821c-7.165-7.217-10.747-17.243-10.747-30.072c0-12.632,3.919-22.844,11.758-30.631
			c7.839-7.788,18.523-11.684,32.054-11.684C138.044,49.789,146.16,52.411,153.048,57.653z"/>
		<path fill="#B3AA7E" d="M153.923,91.204c0-12.232,3.531-22.191,10.597-29.883c7.065-7.686,16.389-11.532,27.973-11.532
			c12.182,0,21.646,3.694,28.386,11.086c6.739,7.39,10.108,17.501,10.108,30.328c0,12.784-3.43,22.945-10.295,30.485
			c-6.867,7.539-16.266,11.309-28.199,11.309c-12.182,0-21.656-3.806-28.424-11.419C157.306,113.961,153.923,103.837,153.923,91.204
			z M173.395,91.204c0,17.678,6.366,26.516,19.098,26.516c5.842,0,10.471-2.297,13.893-6.892c3.42-4.591,5.129-11.133,5.129-19.624
			c0-17.422-6.339-26.136-19.022-26.136c-5.843,0-10.485,2.297-13.929,6.89C175.118,76.553,173.395,82.968,173.395,91.204z"/>
	</g>
	<path fill="#78A22F" d="M331.34,131.573v-6.736c-2.646,2.245-6.288,4.163-10.933,5.765c-4.645,1.6-8.914,2.396-12.809,2.396
		c-18.624,0-27.933-9.887-27.933-29.655V51.289h18.72v50.629c0,10.282,4.619,15.427,13.856,15.427c4.242,0,8.19-1.098,11.833-3.296
		c3.644-2.192,6.068-4.743,7.265-7.638V51.289h18.723v80.284H331.34z"/>
	<path fill="#78A22F" d="M357.674,126.332l6.668-14.902c5.59,4.443,11.906,6.664,18.947,6.664c7.289,0,10.934-2.595,10.934-7.787
		c0-3.049-1.096-5.542-3.293-7.49c-2.199-1.948-6.467-4.244-12.809-6.894c-13.832-5.739-20.746-13.779-20.746-24.116
		c0-6.937,2.645-12.342,7.939-16.212c5.293-3.87,12.059-5.805,20.297-5.805c8.336,0,16.176,1.873,23.518,5.616l-5.395,14.532
		c-4.094-3.495-9.787-5.241-17.074-5.241c-6.541,0-9.811,2.594-9.811,7.788c0,2.047,1.07,3.893,3.219,5.541
		c2.146,1.649,6.742,3.858,13.777,6.63c7.043,2.772,12.109,6.125,15.207,10.072c3.096,3.944,4.641,8.709,4.641,14.304
		c0,7.438-2.76,13.294-8.271,17.564c-5.52,4.268-13.021,6.402-22.508,6.402c-5.34,0-9.623-0.437-12.844-1.311
		C366.852,130.813,362.715,129.026,357.674,126.332z"/>
	<path fill="#78A22F" d="M477.021,131.502l-0.164-80.212h19.111v80.212H477.021z"/>
	<path fill="#78A22F" d="M573.006,57.653l-8.014,14.006c-4.393-4.144-10.287-6.216-17.676-6.216c-7.09,0-12.695,2.359-16.812,7.078
		c-4.119,4.716-6.174,11.245-6.174,19.584c0,16.827,8.008,25.241,24.035,25.241c6.941,0,13.059-2.297,18.35-6.892l6.891,14.755
		c-5.443,3.396-10.201,5.541-14.27,6.441c-4.068,0.897-8.873,1.348-14.418,1.348c-12.377,0-22.154-3.607-29.318-10.821
		c-7.168-7.217-10.748-17.243-10.748-30.072c0-12.632,3.92-22.844,11.758-30.631c7.84-7.788,18.525-11.684,32.057-11.684
		C558,49.789,566.119,52.411,573.006,57.653z"/>
	<path fill="#78A22F" d="M650.559,97.124h-57.297c0.348,6.389,2.547,11.359,6.592,14.903c4.045,3.547,9.486,5.318,16.328,5.318
		c8.537,0,15.033-2.222,19.469-6.665l7.27,14.301c-6.59,5.345-16.432,8.017-29.51,8.017c-12.236,0-21.906-3.581-29.025-10.746
		c-7.109-7.168-10.67-17.164-10.67-29.999c0-12.628,3.908-22.865,11.721-30.706c7.82-7.839,17.189-11.758,28.121-11.758
		c11.635,0,20.975,3.471,28.014,10.412c7.043,6.939,10.561,15.777,10.561,26.513C652.131,89.01,651.605,92.479,650.559,97.124z
		 M593.938,83.042h39.396c-1.301-11.73-7.793-17.599-19.477-17.599C603.172,65.443,596.537,71.311,593.938,83.042z"/>
	<path fill="#78A22F" d="M269.86,51.31V50.46h-10.662c0.38,21.618-22.171,17.879-22.171,17.879V83.52h14.136v46.406
		c0,6.143-1.761,10.398-5.281,12.769c-3.521,2.374-10.274,3.561-20.259,3.561v16.699c15.078,0,26.224-2.68,33.438-8.053
		c7.217-5.365,10.824-13.791,10.824-25.271V51.289L269.86,51.31z"/>
	<path fill="#78A22F" d="M456.131,117.384c-4.498,0-7.643-1.183-9.441-3.557c-1.793-2.369-2.695-6.432-2.695-12.171V66.531h22.016
		V51.477h-22.016l-0.049-0.066V33.69h-10.662c0.229,12.883-7.682,16.756-14.119,17.787h-3.182v0.31
		c-0.043,0.002-0.086,0.006-0.127,0.006v14.955h9.418v40.378c0,8.336,2.145,14.765,6.441,19.282
		c4.295,4.519,10.432,6.775,18.418,6.775c8.039,0,14.232-0.746,18.578-2.244v-17.227
		C464.816,116.166,460.619,117.384,456.131,117.384z"/>
	<path fill="#78A22F" d="M487.033,37.31c-4.777-10.196-5.029-20.096-22.156-31.225c0-0.01,0-0.022,0-0.03
		c18.377,8.369,21.029,25.808,30.607,32.626c0.041-0.001,0.084,0.001,0.123,0c1.705-9.665-3.039-20.173-9.773-26.944
		c-6.762-6.795-16.57-11.859-26.846-11.736c-0.525,8.767,3.939,19.88,10.662,26.858c4.143,4.347,10.299,8.246,16.902,10.558
		C487.164,37.633,487.316,37.633,487.033,37.31z"/>
</g>
</svg>
